<?xml version="1.0" encoding="iso-8859-1"?>
<svg xmlns="http://www.w3.org/2000/svg" xmlns:xlink="http://www.w3.org/1999/xlink" version="1.1" viewBox="0 0 470 470" enable-background="new 0 0 470 470" width="512px" height="512px">
  <g>
    <path d="m74.804,178.587h320.393c4.142,0 7.5-3.358 7.5-7.5s-3.358-7.5-7.5-7.5h-320.393c-4.142,0-7.5,3.358-7.5,7.5s3.358,7.5 7.5,7.5z" fill="#FFFFFF"/>
    <path d="m463.877,218.663l-29.965-50.784-6.854-18.959h15.442c4.142,0 7.5-3.358 7.5-7.5s-3.358-7.5-7.5-7.5h-20.865l-28.11-77.755c-5.198-14.377-21.245-25.64-36.533-25.64h-243.984c-15.288,0-31.335,11.262-36.533,25.64l-28.11,77.755h-20.865c-4.142,0-7.5,3.358-7.5,7.5s3.358,7.5 7.5,7.5h15.442l-6.854,18.959-29.965,50.783c-3.491,5.915-6.123,15.556-6.123,22.425v128.638c0,4.142 3.358,7.5 7.5,7.5h2.5v54.75c0,4.142 3.358,7.5 7.5,7.5h78.911c4.142,0 7.5-3.358 7.5-7.5v-32.25c0-4.142-3.358-7.5-7.5-7.5s-7.5,3.358-7.5,7.5v24.75h-63.911v-47.25h86.791c0.043,0 206.376,0 206.376,0 0.043,0 40,0 40,0 0.043,0 86.834,0 86.834,0v47.25h-63.911v-24.75c0-4.142-3.358-7.5-7.5-7.5s-7.5,3.358-7.5,7.5v32.25c0,4.142 3.358,7.5 7.5,7.5h78.91c4.142,0 7.5-3.358 7.5-7.5v-54.75h2.5c4.142,0 7.5-3.358 7.5-7.5v-128.638c0-6.869-2.632-16.51-6.123-22.424zm-448.877,22.424c0-4.162 1.926-11.217 4.042-14.801l30.321-51.387c0.237-0.401 0.436-0.824 0.594-1.262l40.625-112.373c3.031-8.384 13.511-15.739 22.426-15.739h243.984c8.916,0 19.395,7.355 22.426,15.739l40.625,112.373c0.158,0.438 0.357,0.86 0.594,1.262l30.322,51.388c2.115,3.583 4.041,10.638 4.041,14.8v121.138h-87.347l6.474-27.544h58.373c4.142,0 7.5-3.358 7.5-7.5s-3.358-7.5-7.5-7.5h-64.314c-3.481,0-6.504,2.395-7.301,5.784l-8.641,36.76h-24.591l7.834-33.328c0.524-2.23 0-4.578-1.422-6.374-1.423-1.796-3.588-2.843-5.879-2.843h-186.372c-2.291,0-4.456,1.047-5.879,2.843-1.422,1.796-1.946,4.143-1.422,6.374l7.834,33.328h-24.591l-8.641-36.76c-0.796-3.389-3.82-5.784-7.301-5.784h-64.314c-4.142,0-7.5,3.358-7.5,7.5s3.358,7.5 7.5,7.5h58.373l6.474,27.544h-87.347v-121.138zm142.756,121.138l-6.474-27.544h167.437l-6.474,27.544h-154.489z" fill="#FFFFFF"/>
    <path d="m328.186,252.626h-85.686v-22.5c0-4.142-3.358-7.5-7.5-7.5s-7.5,3.358-7.5,7.5v22.5h-85.686c-4.142,0-7.5,3.358-7.5,7.5s3.358,7.5 7.5,7.5h85.686v22.5c0,4.142 3.358,7.5 7.5,7.5s7.5-3.358 7.5-7.5v-22.5h85.686c4.142,0 7.5-3.358 7.5-7.5s-3.358-7.5-7.5-7.5z" fill="#FFFFFF"/>
    <path d="m30.03,290.126c0,4.142 3.358,7.5 7.5,7.5h61.237c4.142,0 7.5-3.358 7.5-7.5 0-31.176-25.363-56.54-56.539-56.54h-12.198c-4.142,0-7.5,3.358-7.5,7.5s3.358,7.5 7.5,7.5h12.198c20.345,0 37.321,14.702 40.861,34.04h-53.059c-4.142,0-7.5,3.358-7.5,7.5z" fill="#FFFFFF"/>
    <path d="m363.763,290.126c0,4.142 3.358,7.5 7.5,7.5h61.237c4.142,0 7.5-3.358 7.5-7.5s-3.358-7.5-7.5-7.5h-53.059c3.54-19.338 20.516-34.04 40.861-34.04h12.198c4.142,0 7.5-3.358 7.5-7.5s-3.358-7.5-7.5-7.5h-12.198c-31.176,0.001-56.539,25.364-56.539,56.54z" fill="#FFFFFF"/>
  </g>
</svg>
