<?xml version="1.0" encoding="utf-8"?>
<!-- Generator: Adobe Illustrator 16.0.0, SVG Export Plug-In . SVG Version: 6.00 Build 0)  -->
<svg version="1.2" baseProfile="tiny" id="Calque_1"
	 xmlns="http://www.w3.org/2000/svg" xmlns:xlink="http://www.w3.org/1999/xlink" x="0px" y="0px" width="344.068px"
	 height="131.025px" viewBox="0 0 344.068 131.025" xml:space="preserve">
<path fill="#FFFFFF" d="M81.642,66.567c0-20.52-7.906-38.484-19.731-48.38c0.685,0.177,1.458,0.106,2.083-0.41
	c0.926-0.765,1.115-3.158,0.069-4.23c-0.516-0.527-1.312-1.061-2.413-1.396c0.278-0.178,0.533-0.364,0.739-0.564
	c2.143-2.057,2.918-5.012,1.871-6.736c-1.687-2.774-6.16-1.789-6.966,0.378c-1.298,3.493,1.755,4.465,1.056,5.478
	c-0.396,0.576-3.521,0.73-6.027-0.252c-0.841-0.33-2-1.285-3.237-2.282c0.601,0.092,1.32,0.04,2.198-0.283
	c2.18-0.8,3.171-5.247,0.38-6.922c-1.18-0.708-2.932-0.561-4.584,0.267c-0.076-0.14-0.16-0.277-0.269-0.406
	c-0.77-0.92-2.389-1.112-3.701-0.383c-0.921,0.511-1.82,2.201-2.008,4.119C41.03,5.319,41.02,6.13,41.055,6.887
	c-0.013,0.028-0.024,0.057-0.036,0.083c0.026-0.709,0.011-1.454-0.056-2.151c-0.188-1.92-1.087-3.609-2.008-4.121
	c-1.312-0.728-2.93-0.538-3.7,0.383c-0.109,0.13-0.195,0.267-0.269,0.407c-1.652-0.827-3.403-0.974-4.583-0.267
	c-2.791,1.676-1.8,6.123,0.379,6.923c0.534,0.195,1.001,0.283,1.428,0.308c-1.105,0.891-2.128,1.703-2.891,2.002
	c-2.506,0.98-5.631,0.827-6.027,0.252c-0.7-1.013,2.355-1.983,1.056-5.478c-0.805-2.167-5.279-3.152-6.966-0.378
	c-1.047,1.725-0.272,4.679,1.872,6.736c0.207,0.2,0.461,0.387,0.739,0.564c-1.102,0.335-1.896,0.867-2.411,1.394
	c-1.048,1.072-0.859,3.465,0.067,4.232c0.625,0.516,1.398,0.587,2.082,0.409C7.906,28.083,0,46.046,0,66.566
	c0,27.16,13.851,49.836,32.309,55.256c-0.938,0.045-1.773,0.168-2.369,0.271c-0.965,0.174-2.88-1.883-4.265-0.24
	c-1.208,1.432-0.117,3.217,1.737,3.324c1.77,0.107,4.811-1.42,6.181-1.432c1.919-0.016,3.961,0.881,4.077,1.363
	c0.204,0.854-2.077,0.723-2.111,3.381c-0.021,1.645,2.706,3.438,4.542,2.021c0.518-0.4,0.84-1.07,0.965-1.855
	c0.125,0.785,0.447,1.455,0.964,1.855c1.837,1.416,4.563-0.377,4.541-2.021c-0.033-2.658-2.315-2.527-2.111-3.381
	c0.114-0.48,2.157-1.379,4.077-1.363c1.37,0.014,4.411,1.539,6.183,1.432c1.852-0.107,2.941-1.893,1.735-3.324
	c-1.384-1.645-3.299,0.414-4.264,0.24c-0.689-0.121-1.702-0.266-2.82-0.279C67.809,116.376,81.642,93.711,81.642,66.567z
	 M59.088,13.217c1.397-0.073,2.732,0.308,2.815,0.614c0.167,0.6-1.688,0.748-1.707,2.692c-0.001,0.117,0.024,0.234,0.063,0.351
	c-1.642-1.233-3.354-2.308-5.124-3.226C56.526,13.694,57.889,13.532,59.088,13.217z M43.093,2.804
	c0.359-0.1,0.563,0.507,1.074,1.023c-0.253,0.436-0.474,0.946-0.662,1.496c-0.368,0.028-0.716,0.111-1.031,0.245
	C42.407,4.193,42.789,2.887,43.093,2.804z M40.885,8.557c0.029,0.139,0.066,0.281,0.116,0.425c0.146,0.42,0.351,0.729,0.592,0.973
	c0.013,0.043,0.033,0.098,0.048,0.142c-0.273-0.008-0.544-0.029-0.821-0.029c-0.102,0-0.204,0.01-0.306,0.011
	c0.073-0.233,0.136-0.444,0.184-0.604C40.771,9.225,40.834,8.912,40.885,8.557z M38.973,3.057c0.302,0.083,0.681,1.367,0.625,2.726
	c-0.328-0.204-0.704-0.347-1.114-0.419c-0.174-0.465-0.366-0.905-0.585-1.283C38.409,3.565,38.614,2.958,38.973,3.057z
	 M19.737,13.833c0.085-0.306,1.421-0.688,2.817-0.614c1.2,0.314,2.562,0.476,3.95,0.431c-1.769,0.918-3.481,1.993-5.123,3.226
	c0.039-0.116,0.066-0.233,0.064-0.35C21.426,14.579,19.571,14.431,19.737,13.833z M41.539,125.552
	c-0.246,0.525-0.397,1.066-0.478,1.598c-0.08-0.531-0.231-1.074-0.479-1.598c-0.438-0.936-1.592-1.951-3.054-2.688
	c1.086,0.121,2.182,0.199,3.29,0.199c1.316,0,2.614-0.094,3.9-0.262C43.198,123.541,41.991,124.589,41.539,125.552z M40.82,121.31
	c-21.409,0-38.766-24.521-38.766-54.767c0-28.104,14.986-51.253,34.284-54.394c-0.087,0.316-0.176,0.634-0.298,0.938
	c-0.223,0.558-0.03,0.894,0.349,1.002c-0.198,0.292-0.364,0.516-0.461,0.629c-0.942,1.094,2.099,0.716,3.154-1.175
	c0.319-0.571,0.59-1.17,0.818-1.737c0.307-0.011,0.611-0.032,0.918-0.032c0.491,0,0.978,0.027,1.463,0.053
	c0.205,0.484,0.433,0.982,0.701,1.463c1.055,1.892,4.095,2.27,3.153,1.175c-0.098-0.112-0.262-0.336-0.46-0.629
	c0.378-0.109,0.57-0.445,0.349-1.002c-0.075-0.191-0.127-0.391-0.19-0.587C64.872,15.725,79.584,38.7,79.584,66.544
	C79.586,96.79,62.228,121.31,40.82,121.31z"/>
<line fill="#FFFFFF" stroke="#FFFFFF" stroke-miterlimit="10" x1="189.877" y1="0" x2="189.877" y2="131.025"/>
<g>
	<path fill="#FFFFFF" d="M240.75,93.416h-33.627v-1.44h32.259v-25.49h-30.027v-1.44h30.027V40.852h-32.259v-1.44h33.627V93.416z"/>
</g>
<g>
	<path fill="#FFFFFF" d="M252.516,84.415c4.608,4.681,11.089,7.633,18.146,7.633c14.186,0,25.634-11.449,25.634-25.634
		c0-14.185-11.448-25.634-25.634-25.634c-7.057,0-13.394,2.809-18.002,7.345l-1.008-0.936c4.896-4.824,11.593-7.777,19.01-7.777
		c14.905,0,27.002,12.097,27.002,27.002s-12.097,27.002-27.002,27.002c-7.488,0-14.257-3.024-19.153-7.921L252.516,84.415z"/>
</g>
<g>
	<path fill="#FFFFFF" d="M339.748,39.411v1.368h-20.594v52.637h-1.368V40.779H297.12v-1.368H339.748z"/>
</g>
<g>
	<path fill="#FFFFFF" d="M92.594,39.411h33.627v1.44H93.962v24.194h30.027v1.44H93.962v25.49h32.259v1.44H92.594V39.411z"/>
	<path fill="#FFFFFF" d="M138.241,39.411h33.627v1.44h-32.259v24.194h30.027v1.44h-30.027v26.93h-1.368V39.411z"/>
</g>
<g>
	<path fill="#FFFFFF" d="M43.28,71.566H27.871v22.106h-1.368V39.667H44.72c8.785,0,15.985,7.201,15.985,15.985
		c0,8.713-7.057,15.77-15.77,15.914l12.745,22.106h-1.656L43.28,71.566z M44.72,41.036h-16.85v29.163h16.85
		c7.92-0.072,14.473-6.48,14.473-14.545C59.193,47.66,52.713,41.108,44.72,41.036z"/>
</g>
</svg>
